# xmcd
#
# Track frame offsets: 
#        150
#        10338
#        21214
#        32872
#        45898
#        57529
#        70897
#        84726
#        99905
#        110239
#        125256
#        136054
#        148053
#        160787
#        172947
#        188313
#
# Disc length: 2682 seconds
#
# Revision: 0
# Processed by: cddbd v1.5.2PL0 Copyright (c) Steve Scherf et al.
# Submitted via: ExactAudioCopyFreeDBPlugin 1.0
#
DISCID=cd0a7810
DTITLE=Aretha Franklin - Early Years CD2
DYEAR=1900
DGENRE=Soul
TTITLE0=Trouble In Mind
TTITLE1=Rockabye Your Baby With A Dixie Melodie
TTITLE2=Just For A Thrill
TTITLE3=I Apologise
TTITLE4=Lover Come Back To Me
TTITLE5=All Night Long
TTITLE6=While Blood Runs Warm
TTITLE7=Sweet Lover
TTITLE8=Accentuate The Positive
TTITLE9=Don't Cry Baby
TTITLE10=Right Now
TTITLE11=Over The Rainbow
TTITLE12=Without The One You Love
TTITLE13=You Grow Closer
TTITLE14=Precious Lord Part One
TTITLE15=Precious Lord Part Two
EXTD=
EXTT0=
EXTT1=
EXTT2=
EXTT3=
EXTT4=
EXTT5=
EXTT6=
EXTT7=
EXTT8=
EXTT9=
EXTT10=
EXTT11=
EXTT12=
EXTT13=
EXTT14=
EXTT15=
PLAYORDER=
